<svg viewBox="0 0 24 24" fill="none" xmlns="http://www.w3.org/2000/svg">
    <path
        d="M12 22C17.5228 22 22 17.5228 22 12C22 6.47715 17.5228 2 12 2C6.47715 2 2 6.47715 2 12C2 17.5228 6.47715 22 12 22Z"
        fill="#FF6B6B" fill-opacity="0.1" />
    <path
        d="M7 11C7 9.89543 7.89543 9 9 9H15C16.1046 9 17 9.89543 17 11V13C17 14.1046 16.1046 15 15 15H9C7.89543 15 7 14.1046 7 13V11Z"
        stroke="#FF6B6B" stroke-width="2" />
    <path d="M9 11H15V13H9V11Z" fill="#48DBFB" fill-opacity="0.4" />
    <path d="M12 15V18M10 18H14" stroke="#FF6B6B" stroke-width="1.5"
        stroke-linecap="round" />
    <circle cx="18" cy="8" r="1.5" fill="#48DBFB" />
    <circle cx="19.5" cy="5.5" r="1" fill="#48DBFB" opacity="0.6" />
</svg>
